<svg xmlns="http://www.w3.org/2000/svg" viewBox="0 0 365.47 149.41"><defs><style>.cls-1{fill:#575756;}.cls-2,.cls-3{fill:#b6b5b5;}.cls-3{fill-rule:evenodd;}</style></defs><title>aufb_festaufbau</title><g id="Ebene_2" data-name="Ebene 2"><g id="Ebene_1-2" data-name="Ebene 1"><rect class="cls-1" x="184.65" y="103.15" width="8.05" height="21.96" transform="translate(-20.66 44.82) rotate(-12.85)"/><rect class="cls-1" x="182.7" y="84.19" width="4.02" height="25.57" transform="translate(-17.33 45.01) rotate(-13.28)"/><polygon class="cls-2" points="202.99 0 0 58.87 19.39 125.73 222.39 66.86 203 0 202.99 0"/><polygon class="cls-1" points="19.98 132.87 18.93 127.5 225.13 67.43 227.19 72.79 19.98 132.87"/><path class="cls-3" d="M287,149.41a33.64,33.64,0,0,1,67.27,0H358a7.48,7.48,0,0,0,7.47-7.48V100.64a29.89,29.89,0,0,0-1.9-10.5l-16.49-44a7.47,7.47,0,0,0-6.53-4.84l-64.77-4v86h-214l-19.65,5.67-.21,13v7.33l29.53.15H287Zm65-55.8h0a3.36,3.36,0,0,1-.44,0l-49.63-5.84V50.37l37.77,2.36A3.74,3.74,0,0,1,343,55.15L355.5,88.56a3.74,3.74,0,0,1-3.5,5"/></g></g></svg>