<svg xmlns="http://www.w3.org/2000/svg" xmlns:xlink="http://www.w3.org/1999/xlink" viewBox="0 0 471.66 142.17"><defs><style>.cls-1{fill:none;}.cls-2{clip-path:url(#clip-path);}.cls-3{fill:#b2b2b2;}.cls-4{fill:#b6b5b5;fill-rule:evenodd;}</style><clipPath id="clip-path" transform="translate(0)"><rect class="cls-1" width="471.66" height="142.18"/></clipPath></defs><title>aufbau_ANHAENGER</title><g id="Ebene_2" data-name="Ebene 2"><g id="Ebene_1-2" data-name="Ebene 1"><g id="aufbau_ANHAENGER"><g class="cls-2"><rect class="cls-3" x="15.67" width="131" height="69.72"/><g class="cls-2"><path class="cls-4" d="M90.76,118.08a24.09,24.09,0,1,0-24.09,24.09,24.09,24.09,0,0,0,24.09-24.09" transform="translate(0)"/><path class="cls-4" d="M320.43,118.08a24.09,24.09,0,1,0-24.1,24.09,24.09,24.09,0,0,0,24.1-24.09" transform="translate(0)"/><path class="cls-4" d="M439.76,118.08a24.09,24.09,0,1,0-24.09,24.09,24.09,24.09,0,0,0,24.09-24.09" transform="translate(0)"/><path class="cls-4" d="M162.33,75.23V69.72H155v5.51H7.33V69.72H0v32.67H38.69a32.07,32.07,0,0,1,56,0h47l20-21h73V75.23Z" transform="translate(0)"/><path class="cls-4" d="M460.33,72.39l-46.33-6L374,32.06H260L240,62.39l-1.33,10v29.16l8.5,8.5h18.09a32.1,32.1,0,0,1,62.16,0h57.18a32.1,32.1,0,0,1,62.16,0h16.42l8.5-8.5V79.73c-4.43-4.43-6.91-2.91-11.34-7.34m-149.7-6.22H250l15.92-28.78H314Zm12.37,0,5.33-28.78h42.33l30.67,28.78Z" transform="translate(0)"/></g></g></g></g></g></svg>