<svg xmlns="http://www.w3.org/2000/svg" xmlns:xlink="http://www.w3.org/1999/xlink" viewBox="0 0 328.19 112.12"><defs><style>.cls-1{fill:none;}.cls-2{clip-path:url(#clip-path);}.cls-3,.cls-4{fill:#b6b5b5;}.cls-3{fill-rule:evenodd;}.cls-5{fill:#575756;}</style><clipPath id="clip-path" transform="translate(0 0)"><rect class="cls-1" width="328.18" height="112.12"/></clipPath></defs><title>aufb_schnellwechsel</title><g id="Ebene_2" data-name="Ebene 2"><g id="Ebene_1-2" data-name="Ebene 1"><g id="aufb_schnellwechsel"><g class="cls-2"><g class="cls-2"><path class="cls-3" d="M249.7,112.12a33.64,33.64,0,0,1,67.27,0h3.74a7.48,7.48,0,0,0,7.47-7.48V63.35a29.89,29.89,0,0,0-1.9-10.5l-16.49-44A7.47,7.47,0,0,0,303.26,4L238.49,0V86h-214L4.88,91.63l-.21,13V112l29.53.15H249.7Zm65-55.8h0a3.36,3.36,0,0,1-.44,0l-49.63-5.84V13.08l37.77,2.36a3.74,3.74,0,0,1,3.27,2.42l12.53,33.41a3.74,3.74,0,0,1-3.5,5" transform="translate(0 0)"/><rect class="cls-4" x="38.03" y="3.42" width="140.38" height="73.36"/><rect class="cls-5" x="79.75" y="44.78" width="10.54" height="11.97"/><polygon class="cls-5" points="30.56 44.78 30.56 33.17 0 50.77 30.56 68.36 30.56 56.75 76.96 56.75 76.96 44.78 30.56 44.78"/><rect class="cls-5" x="125.42" y="23.46" width="10.54" height="11.97"/><polygon class="cls-5" points="215.71 29.44 185.15 11.85 185.15 23.46 138.75 23.46 138.75 35.43 185.15 35.43 185.15 47.04 215.71 29.44"/></g></g></g></g></g></svg>