<svg xmlns="http://www.w3.org/2000/svg" viewBox="0 0 365.47 149.41"><defs><style>.cls-1{fill:#575756;}.cls-2,.cls-3{fill:#b6b5b5;}.cls-3{fill-rule:evenodd;}</style></defs><title>aufb_kipper</title><g id="Ebene_2" data-name="Ebene 2"><g id="Ebene_1-2" data-name="Ebene 1"><rect class="cls-1" x="122.48" y="111.72" width="5.98" height="16.32" transform="translate(-23.52 30.91) rotate(-12.85)"/><rect class="cls-1" x="121.03" y="97.63" width="2.99" height="19" transform="translate(-21.33 31) rotate(-13.27)"/><polygon class="cls-2" points="202.99 0 0 58.87 19.39 125.73 222.39 66.86 203 0 202.99 0"/><rect class="cls-1" x="12.38" y="79.38" width="215.74" height="23.92" transform="translate(-20.68 37.1) rotate(-16.17)"/><path class="cls-3" d="M287,149.41a33.64,33.64,0,0,1,67.27,0H358a7.48,7.48,0,0,0,7.47-7.48V100.64a29.89,29.89,0,0,0-1.9-10.5l-16.49-44a7.47,7.47,0,0,0-6.53-4.84l-64.77-4v86h-214l-19.65,5.67-.21,13v7.33l29.53.15H287Zm65-55.8h0a3.36,3.36,0,0,1-.44,0l-49.63-5.84V50.37l37.77,2.36A3.74,3.74,0,0,1,343,55.15L355.5,88.56a3.74,3.74,0,0,1-3.5,5"/></g></g></svg>