<svg xmlns="http://www.w3.org/2000/svg" xmlns:xlink="http://www.w3.org/1999/xlink" viewBox="0 0 501.49 337.31"><defs><style>.cls-1{fill:none;}.cls-2{clip-path:url(#clip-path);}.cls-3{fill:#dadada;}.cls-4{fill:#d51317;}</style><clipPath id="clip-path" transform="translate(0)"><rect class="cls-1" width="501.49" height="337.31"/></clipPath></defs><title>heckkl_2kl</title><g id="Ebene_2" data-name="Ebene 2"><g id="Ebene_1-2" data-name="Ebene 1"><g id="heckkl_2kl"><g class="cls-2"><g class="cls-2"><path class="cls-3" d="M0,0V86.57A250.52,250.52,0,0,0,114.18,296.88V160.29H236.57V336.91c4.69.26,9.42.41,14.18.41s9.48-.14,14.18-.41V160.29H387.31V296.88A250.52,250.52,0,0,0,501.49,86.57V0Z" transform="translate(0)"/><path class="cls-4" d="M114.18,160.29V296.88a249.33,249.33,0,0,0,122.39,40V160.29Z" transform="translate(0)"/><path class="cls-4" d="M264.93,160.29V336.91a249.33,249.33,0,0,0,122.39-40V160.29Z" transform="translate(0)"/></g></g></g></g></g></svg>