<svg xmlns="http://www.w3.org/2000/svg" xmlns:xlink="http://www.w3.org/1999/xlink" viewBox="0 0 501.49 337.31"><defs><style>.cls-1{fill:none;}.cls-2{clip-path:url(#clip-path);}.cls-3{fill:#dadada;}.cls-4{fill:#d51317;}.cls-5{fill:#d5141a;}</style><clipPath id="clip-path"><rect class="cls-1" width="501.49" height="337.31"/></clipPath></defs><title>heckkl_1gr</title><g id="Ebene_2" data-name="Ebene 2"><g id="Ebene_1-2" data-name="Ebene 1"><g id="heckkl_1gr"><g class="cls-2"><g class="cls-2"><path class="cls-3" d="M0,0V86.57A250.7,250.7,0,0,0,131.34,307.11V120H370.15V307.11A250.69,250.69,0,0,0,501.49,86.57V0Z"/><path class="cls-4" d="M131.34,120V307.11a251.13,251.13,0,0,0,238.81,0V120Z"/><polygon class="cls-3" points="243.76 160.05 243.76 220.67 257.73 220.67 257.73 160.05 264.66 147.4 264.66 63.24 236.83 63.24 236.83 147.4 243.76 160.05"/><path class="cls-5" d="M264.66,63.24v84.15L257.73,160v60.62h-14V160l-6.93-12.65V63.24Zm10-10H226.83V150l1.23,2.24,5.7,10.41v68.06h34V162.61l5.7-10.41,1.23-2.24V53.24Z"/></g></g></g></g></g></svg>