<svg xmlns="http://www.w3.org/2000/svg" viewBox="0 0 323.52 126.09"><defs><style>.cls-1{fill:#b6b5b5;}.cls-1,.cls-2{fill-rule:evenodd;}.cls-2{fill:#575756;}</style></defs><title>aufb_schwenker</title><g id="Ebene_2" data-name="Ebene 2"><g id="Ebene_1-2" data-name="Ebene 1"><path class="cls-1" d="M245,126.09a33.64,33.64,0,0,1,67.27,0H316a7.48,7.48,0,0,0,7.47-7.48V77.32a29.88,29.88,0,0,0-1.9-10.5l-16.49-44A7.47,7.47,0,0,0,298.6,18l-64.77-4v86h-214L0,104.15v21.8l29.53.15H245Zm65-55.8h0l-.44,0L260,64.42V27l37.77,2.36A3.74,3.74,0,0,1,301,31.83l12.53,33.41a3.74,3.74,0,0,1-3.5,5"/><polygon class="cls-1" points="201.57 24.58 47.58 24.12 47.47 93.73 201.46 94.2 201.57 24.58"/><polygon class="cls-2" points="126.06 8.08 122.92 8.08 192.87 90.43 196.01 90.43 126.06 8.08"/><polygon class="cls-2" points="122.98 8.08 126.13 8.08 56.18 90.44 53.03 90.44 122.98 8.08"/><path class="cls-2" d="M10.45,104.58,124.68.69c1.79-1.62,3.25-.28,3.25,3s-1.46,7.26-3.25,8.88L10.45,116.44c-1.78,1.63-3.25.28-3.25-3s1.46-7.26,3.25-8.89"/></g></g></svg>