<svg xmlns="http://www.w3.org/2000/svg" viewBox="0 0 238.93 113.25"><defs><style>.cls-1,.cls-2{fill:#b2b2b2;}.cls-1{fill-rule:evenodd;}.cls-3{fill:#575756;}</style></defs><title>aufb_unimog</title><g id="Ebene_2" data-name="Ebene 2"><g id="Ebene_1-2" data-name="Ebene 1"><path class="cls-1" d="M238.93,113.25l-6.2-19.06,1.37-9.58-3.83-11.5-20.53-14L184.82.28,124.31,0,126,79.4H0v33.85H4.64c2.89-15.83,17.3-27.87,34.65-27.87,18.22,0,33.21,11,35,27.87h86.45c7.08-41.33,66.23-34,69.66,0ZM173.14,37.37l-30.76-1L141,12.87c-1.15-5.25.84-7.51,5.2-7.53L170.29,6.4Zm32.19,22.14h0l-22.28-.06-7.27-21.8L173,6.57l10.15.13Z"/><rect class="cls-2" x="5.87" y="5.96" width="106.01" height="61.33"/><rect class="cls-3" y="36.96" width="115.82" height="38.88"/></g></g></svg>