<svg xmlns="http://www.w3.org/2000/svg" viewBox="0 0 388.38 127.18"><defs><style>.cls-1,.cls-3{fill:#575756;}.cls-2,.cls-4{fill:#b6b5b5;}.cls-3,.cls-4{fill-rule:evenodd;}</style></defs><title>aufb_absetzer</title><g id="Ebene_2" data-name="Ebene 2"><g id="Ebene_1-2" data-name="Ebene 1"><rect class="cls-1" x="259.26" y="77.46" width="7.12" height="38.37" transform="translate(62.98 292.79) rotate(-64.65)"/><rect class="cls-1" x="237.4" y="71.98" width="3.56" height="26.92" transform="translate(59.58 265.03) rotate(-64.66)"/><rect class="cls-2" x="5.2" y="17.12" width="176.83" height="69.61" transform="translate(-8.55 19.96) rotate(-11.64)"/><polygon class="cls-3" points="223.08 21.64 237.75 67.89 120.87 104.95 123.5 113.25 240.38 76.19 247.92 73.8 245.29 65.5 230.62 19.25 223.08 21.64"/><path class="cls-1" d="M226.79,27.06c-4.48,0-9.24-2.84-11.46-4.35l3.37-4.94c4.36,3,8,3.79,9.3,3.06.9-.52,1.29-2.52,1.06-5.36l6-.49c.45,5.5-.9,9.2-4,11a8.25,8.25,0,0,1-4.22,1.07"/><polygon class="cls-1" points="16.43 112.03 15.21 106.17 193.74 69 223.65 17.42 228.83 20.42 197.57 74.31 16.43 112.03"/><path class="cls-4" d="M309.9,127.18a33.64,33.64,0,1,1,67.27,0h3.74a7.48,7.48,0,0,0,7.47-7.48V78.41a30,30,0,0,0-1.9-10.5L370,23.94a7.47,7.47,0,0,0-6.53-4.84l-64.77-4v86h-214l-19.86,4.22V127l29.53.15H309.9Zm65-55.8h0l-.43,0-49.63-5.84V28.14l37.77,2.36a3.74,3.74,0,0,1,3.27,2.42l12.53,33.41a3.74,3.74,0,0,1-3.5,5"/></g></g></svg>