<svg xmlns="http://www.w3.org/2000/svg" xmlns:xlink="http://www.w3.org/1999/xlink" viewBox="0 0 303.52 136.21"><defs><style>.cls-1{fill:none;}.cls-2{clip-path:url(#clip-path);}.cls-3,.cls-4{fill:#b6b5b5;}.cls-3{fill-rule:evenodd;}</style><clipPath id="clip-path" transform="translate(0 0)"><rect class="cls-1" width="303.52" height="136.21"/></clipPath></defs><title>aufbau_LKW2achser</title><g id="Ebene_2" data-name="Ebene 2"><g id="Ebene_1-2" data-name="Ebene 1"><g id="aufbau_LKW2achser"><g class="cls-2"><g class="cls-2"><path class="cls-3" d="M282.81,112.12a24.09,24.09,0,1,0-24.09,24.09,24.09,24.09,0,0,0,24.09-24.09" transform="translate(0 0)"/><path class="cls-3" d="M88.14,112.12A24.09,24.09,0,1,0,64,136.21a24.09,24.09,0,0,0,24.1-24.09" transform="translate(0 0)"/><path class="cls-3" d="M64,88A24.09,24.09,0,0,0,40,112.12H88.14A24.09,24.09,0,0,0,64,88" transform="translate(0 0)"/><path class="cls-3" d="M46.16,86H19.86L.22,91.63l-.22,13V112l19.53.15H32.34A31.69,31.69,0,0,1,46.16,86" transform="translate(0 0)"/><path class="cls-3" d="M301.62,52.85l-16.49-44A7.48,7.48,0,0,0,278.6,4L213.82,0V86H81.93a31.69,31.69,0,0,1,13.82,26.16H225a33.64,33.64,0,0,1,67.27,0H296a7.47,7.47,0,0,0,7.47-7.48V63.35a29.9,29.9,0,0,0-1.9-10.5M290,56.32l-.44,0L240,50.45V13.08l37.77,2.36A3.74,3.74,0,0,1,281,17.86l12.53,33.41a3.78,3.78,0,0,1,.24,1.31A3.74,3.74,0,0,1,290,56.32" transform="translate(0 0)"/><rect class="cls-4" x="5.08" y="3" width="201.88" height="75.96"/></g></g></g></g></g></svg>