<svg xmlns="http://www.w3.org/2000/svg" xmlns:xlink="http://www.w3.org/1999/xlink" viewBox="0 0 262.01 143.17"><defs><style>.cls-1{fill:none;}.cls-2{clip-path:url(#clip-path);}.cls-3{fill:#b6b5b5;fill-rule:evenodd;}.cls-4{fill:#b2b2b2;}</style><clipPath id="clip-path" transform="translate(0 0)"><rect class="cls-1" width="262.01" height="143.18"/></clipPath></defs><title>aufbau_UNIMOG</title><g id="Ebene_2" data-name="Ebene 2"><g id="Ebene_1-2" data-name="Ebene 1"><g id="aufbau_UNIMOG"><g class="cls-2"><g class="cls-2"><path class="cls-3" d="M242.81,119.08a24.09,24.09,0,1,0-24.09,24.09,24.09,24.09,0,0,0,24.09-24.09" transform="translate(0 0)"/><rect class="cls-4" width="141.04" height="78.39"/><path class="cls-3" d="M88.14,119.08A24.09,24.09,0,1,0,64,143.17a24.09,24.09,0,0,0,24.1-24.09" transform="translate(0 0)"/><path class="cls-3" d="M255.81,100l1.37-9.58-3.83-11.5L232.82,65,207.9,6.1l-60.51-.28L149,85.23h-126v33.85h8.87a32.09,32.09,0,1,1,64.19,0h90.48a32.09,32.09,0,1,1,64.19,0H262ZM165.46,42.25,164.09,18.7c-1.15-5.25.84-7.51,5.2-7.53l24.08,1.06,2.84,31Zm40.67,23-7.27-21.8L196.12,12.4l10.15.13,22.14,52.81Z" transform="translate(0 0)"/></g></g></g></g></g></svg>