<svg xmlns="http://www.w3.org/2000/svg" xmlns:xlink="http://www.w3.org/1999/xlink" viewBox="0 0 333.52 136.21"><defs><style>.cls-1{fill:none;}.cls-2{clip-path:url(#clip-path);}.cls-3,.cls-4{fill:#b6b5b5;}.cls-3{fill-rule:evenodd;}</style><clipPath id="clip-path" transform="translate(0 0)"><rect class="cls-1" width="333.52" height="136.21"/></clipPath></defs><title>aufbau_LKW4achser</title><g id="Ebene_2" data-name="Ebene 2"><g id="Ebene_1-2" data-name="Ebene 1"><g id="aufbau_LKW4achser"><g class="cls-2"><g class="cls-2"><path class="cls-3" d="M312.81,112.12a24.09,24.09,0,1,0-24.09,24.09,24.09,24.09,0,0,0,24.09-24.09" transform="translate(0 0)"/><path class="cls-3" d="M235.81,112.12a24.09,24.09,0,1,0-24.09,24.09,24.09,24.09,0,0,0,24.09-24.09" transform="translate(0 0)"/><path class="cls-3" d="M331.62,52.85l-16.49-44A7.48,7.48,0,0,0,308.6,4L243.82,0V86H229.59a31.69,31.69,0,0,1,13.82,26.16H255a33.64,33.64,0,0,1,67.27,0H326a7.47,7.47,0,0,0,7.47-7.48V63.35a29.9,29.9,0,0,0-1.9-10.5M320,56.32l-.44,0L270,50.45V13.08l37.77,2.36A3.74,3.74,0,0,1,311,17.86l12.53,33.41a3.78,3.78,0,0,1,.24,1.31A3.74,3.74,0,0,1,320,56.32" transform="translate(0 0)"/><path class="cls-3" d="M211.71,88a24.09,24.09,0,0,0-24.1,24.09h48.19A24.09,24.09,0,0,0,211.71,88" transform="translate(0 0)"/><path class="cls-3" d="M135.14,112.12A24.09,24.09,0,1,0,111,136.21a24.09,24.09,0,0,0,24.1-24.09" transform="translate(0 0)"/><path class="cls-3" d="M111,88A24.09,24.09,0,0,0,87,112.12h48.19A24.09,24.09,0,0,0,111,88" transform="translate(0 0)"/><path class="cls-3" d="M136.57,86h-7.65a31.69,31.69,0,0,1,13.82,26.16H180A31.69,31.69,0,0,1,193.83,86Z" transform="translate(0 0)"/><path class="cls-3" d="M68.14,112.12A24.09,24.09,0,1,0,44,136.21a24.09,24.09,0,0,0,24.1-24.09" transform="translate(0 0)"/><path class="cls-3" d="M44,88A24.09,24.09,0,0,0,20,112l19.58.07H68.14A24.09,24.09,0,0,0,44,88" transform="translate(0 0)"/><path class="cls-3" d="M65.72,86H61.93a31.69,31.69,0,0,1,13.82,26.16h3.59A31.69,31.69,0,0,1,93.16,86Z" transform="translate(0 0)"/><path class="cls-3" d="M26.16,86h-6.3L.22,91.63l-.22,13V112l12.34,0A31.69,31.69,0,0,1,26.16,86" transform="translate(0 0)"/><rect class="cls-4" x="3" y="3" width="233.82" height="75.96"/></g></g></g></g></g></svg>